<?xml version="1.0" encoding="utf-8"?>
<svg version="1.1" xmlns:xlink="http://www.w3.org/1999/xlink" width="16px" height="13px" xmlns="http://www.w3.org/2000/svg">
  <g transform="matrix(1 0 0 1 -157 -40 )">
    <path d="M 8.75763747454175 12.3150537634409  C 8.36116768499661 12.7716845878136  8.10862186014936 13  8 13  C 7.89137813985065 13  7.63883231500339 12.7716845878136  7.24236252545825 12.3150537634409  C 6.8458927359131 11.8584229390681  6.64765784114053 11.5679808841099  6.64765784114053 11.4437275985663  C 6.64765784114053 11.2449223416965  6.8173794976239 11.0771804062127  7.15682281059063 10.9405017921147  C 7.49626612355737 10.8038231780167  7.77732518669382 10.7354838709677  8 10.7354838709677  C 8.22267481330618 10.7354838709677  8.50373387644263 10.8038231780167  8.84317718940937 10.9405017921147  C 9.1826205023761 11.0771804062127  9.35234215885947 11.2449223416965  9.35234215885947 11.4437275985663  C 9.35234215885947 11.5679808841099  9.1541072640869 11.8584229390681  8.75763747454175 12.3150537634409  Z M 10.9613034623218 9.77562724014337  C 10.551255940258 10.2415770609319  10.2973523421589 10.4745519713262  10.1995926680244 10.4745519713262  C 10.1887304820095 10.4745519713262  10.0801086218602 10.3968936678614  9.87372708757638 10.2415770609319  C 9.6673455532926 10.0862604540024  9.39171758316361 9.93094384707288  9.04684317718941 9.77562724014337  C 8.70196877121521 9.62031063321386  8.35302104548541 9.5426523297491  8 9.5426523297491  C 7.6469789545146 9.5426523297491  7.29803122878479 9.62031063321386  6.95315682281059 9.77562724014337  C 6.60828241683639 9.93094384707288  6.33401221995927 10.0862604540024  6.13034623217923 10.2415770609319  C 5.92668024439919 10.3968936678614  5.81670061099796 10.4745519713262  5.80040733197556 10.4745519713262  C 5.70264765784114 10.4745519713262  5.44874405974202 10.2415770609319  5.03869653767821 9.77562724014337  C 4.62864901561439 9.30967741935484  4.42362525458248 9.02078853046595  4.42362525458248 8.9089605734767  C 4.42362525458248 8.82819593787336  4.45078071961982 8.75675029868578  4.5050916496945 8.69462365591398  C 4.92871690427699 8.21624850657109  5.46096401900883 7.84038231780167  6.10183299389002 7.56702508960574  C 6.74270196877122 7.2936678614098  7.37542430414121 7.15698924731183  8 7.15698924731183  C 8.62457569585879 7.15698924731183  9.25729803122879 7.2936678614098  9.89816700610998 7.56702508960574  C 10.5390359809912 7.84038231780167  11.071283095723 8.21624850657109  11.4949083503055 8.69462365591398  C 11.5492192803802 8.75675029868578  11.5763747454175 8.82819593787336  11.5763747454175 8.9089605734767  C 11.5763747454175 9.02078853046595  11.3713509843856 9.30967741935484  10.9613034623218 9.77562724014337  Z M 13.173116089613 7.24086021505376  C 12.765784114053 7.70681003584229  12.5159538357094 7.93978494623656  12.4236252545825 7.93978494623656  C 12.3638832315003 7.93978494623656  12.3014256619145 7.91493428912784  12.2362525458248 7.86523297491039  C 11.4976238968092 7.21290322580645  10.8133061778683 6.73297491039427  10.183299389002 6.42544802867384  C 9.55329260013578 6.1179211469534  8.8255261371351 5.96415770609319  8 5.96415770609319  C 7.53835709436524 5.96415770609319  7.07535641547862 6.03249701314218  6.61099796334012 6.16917562724014  C 6.14663951120163 6.30585424133811  5.74202308214528 6.47048984468339  5.39714867617108 6.66308243727599  C 5.05227427019688 6.85567502986858  4.74405974202308 7.04826762246117  4.47250509164969 7.24086021505376  C 4.20095044127631 7.43345280764636  3.98642226748133 7.59808841099164  3.82892057026477 7.73476702508961  C 3.6714188730482 7.87144563918757  3.58723693143245 7.93978494623656  3.57637474541752 7.93978494623656  C 3.48404616429056 7.93978494623656  3.23421588594705 7.70681003584229  2.82688391038697 7.24086021505376  C 2.41955193482688 6.77491039426523  2.21588594704684 6.48602150537634  2.21588594704684 6.3741935483871  C 2.21588594704684 6.29964157706093  2.24304141208418 6.23130227001195  2.29735234215886 6.16917562724014  C 3.0142566191446 5.34910394265233  3.88323150033944 4.71230585424134  4.90427698574338 4.25878136200717  C 5.92532247114732 3.805256869773  6.95723014256619 3.57849462365591  8 3.57849462365591  C 9.04276985743381 3.57849462365591  10.0746775288527 3.805256869773  11.0957230142566 4.25878136200717  C 12.1167684996606 4.71230585424134  12.9857433808554 5.34910394265233  13.7026476578411 6.16917562724014  C 13.7569585879158 6.23130227001195  13.7841140529532 6.29964157706093  13.7841140529532 6.3741935483871  C 13.7841140529532 6.48602150537634  13.5804480651731 6.77491039426523  13.173116089613 7.24086021505376  Z M 15.3849287169043 4.71541218637993  C 14.9748811948405 5.18136200716846  14.7236931432451 5.41433691756272  14.6313645621181 5.41433691756272  C 14.571622539036 5.41433691756272  14.5118805159538 5.38637992831541  14.4521384928717 5.33046594982079  C 13.479972844535 4.35507765830346  12.4711473183978 3.62043010752688  11.4256619144603 3.12652329749104  C 10.3801765105227 2.6326164874552  9.23828920570265 2.38566308243728  8 2.38566308243728  C 6.76171079429735 2.38566308243728  5.61982348947726 2.6326164874552  4.57433808553971 3.12652329749104  C 3.52885268160217 3.62043010752688  2.52002715546504 4.35507765830346  1.54786150712831 5.33046594982079  C 1.48811948404616 5.38637992831541  1.42837746096402 5.41433691756272  1.36863543788187 5.41433691756272  C 1.27630685675492 5.41433691756272  1.02511880515954 5.18136200716846  0.615071283095723 4.71541218637993  C 0.205023761031908 4.2494623655914  0 3.96057347670251  0 3.84874551971326  C 0 3.76798088410992  0.0271554650373388 3.69653524492234  0.0814663951120163 3.63440860215054  C 1.09708078750849 2.47885304659498  2.30549898167006 1.584229390681  3.70672097759674 0.950537634408602  C 5.10794297352342 0.3168458781362  6.53903598099117 0  8 0  C 9.46096401900883 0  10.8920570264766 0.3168458781362  12.2932790224033 0.950537634408602  C 13.6945010183299 1.584229390681  14.9029192124915 2.47885304659498  15.918533604888 3.63440860215054  C 15.9728445349627 3.69653524492234  16 3.76798088410992  16 3.84874551971326  C 16 3.96057347670251  15.7949762389681 4.2494623655914  15.3849287169043 4.71541218637993  Z " fill-rule="nonzero" fill="#666666" stroke="none" transform="matrix(1 0 0 1 157 40 )" />
  </g>
</svg>