<?xml version="1.0" encoding="utf-8"?>
<svg version="1.1" xmlns:xlink="http://www.w3.org/1999/xlink" width="22px" height="20px" xmlns="http://www.w3.org/2000/svg">
  <g transform="matrix(1 0 0 1 -564 -77 )">
    <path d="M 21.3493303571429 9.0375  C 21.7831101190476 10.1541666666667  22 11.5416666666667  22 13.2  C 22 14.5833333333333  21.4802827380952 16.4625  20.4408482142857 18.8375  C 20.4162946428571 18.8958333333333  20.3733258928571 18.9958333333333  20.3119419642857 19.1375  C 20.2505580357143 19.2791666666667  20.1953125 19.4041666666667  20.1462053571429 19.5125  C 20.0970982142857 19.6208333333333  20.0438988095238 19.7125  19.9866071428571 19.7875  C 19.8883928571429 19.9291666666667  19.7738095238095 20  19.6428571428571 20  C 19.5200892857143 20  19.4239211309524 19.9583333333333  19.3543526785714 19.875  C 19.2847842261905 19.7916666666667  19.25 19.6875  19.25 19.5625  C 19.25 19.4875  19.2602306547619 19.3770833333333  19.2806919642857 19.23125  C 19.3011532738095 19.0854166666667  19.3113839285714 18.9875  19.3113839285714 18.9375  C 19.352306547619 18.3708333333333  19.3727678571429 17.8583333333333  19.3727678571429 17.4  C 19.3727678571429 16.5583333333333  19.3011532738095 15.8041666666667  19.1579241071429 15.1375  C 19.0146949404762 14.4708333333333  18.8162202380952 13.89375  18.5625 13.40625  C 18.3087797619048 12.91875  17.9813988095238 12.4979166666667  17.5803571428571 12.14375  C 17.1793154761905 11.7895833333333  16.7475818452381 11.5  16.28515625 11.275  C 15.8227306547619 11.05  15.2784598214286 10.8729166666667  14.65234375 10.74375  C 14.0262276785714 10.6145833333333  13.3960193452381 10.525  12.76171875 10.475  C 12.1274181547619 10.425  11.4092261904762 10.4  10.6071428571429 10.4  L 7.85714285714286 10.4  L 7.85714285714286 13.6  C 7.85714285714286 13.8166666666667  7.77938988095238 14.0041666666667  7.62388392857143 14.1625  C 7.46837797619048 14.3208333333333  7.28422619047619 14.4  7.07142857142857 14.4  C 6.85863095238095 14.4  6.67447916666667 14.3208333333333  6.51897321428571 14.1625  L 0.233258928571429 7.7625  C 0.0777529761904762 7.60416666666667  0 7.41666666666666  0 7.2  C 0 6.98333333333333  0.0777529761904762 6.79583333333333  0.233258928571429 6.6375  L 6.51897321428571 0.237499999999999  C 6.67447916666667 0.0791666666666657  6.85863095238095 0  7.07142857142857 0  C 7.28422619047619 0  7.46837797619048 0.0791666666666657  7.62388392857143 0.237499999999999  C 7.77938988095238 0.395833333333331  7.85714285714286 0.583333333333331  7.85714285714286 0.800000000000001  L 7.85714285714286 4  L 10.6071428571429 4  C 16.4427083333333 4  20.0234375 5.67916666666667  21.3493303571429 9.0375  Z " fill-rule="nonzero" fill="#000000" stroke="none" fill-opacity="0.647058823529412" transform="matrix(1 0 0 1 564 77 )" />
  </g>
</svg>