<?xml version="1.0" encoding="utf-8"?>
<svg version="1.1" xmlns:xlink="http://www.w3.org/1999/xlink" width="279px" height="31px" xmlns="http://www.w3.org/2000/svg">
  <defs>
    <mask fill="white" id="clip4">
      <path d="M 0 25.0384615384615  L 0 5.96153846153846  C 0 2.62307692307698  2.60084745762711 0  5.91101694915254 0  L 232.198654037883 0  L 273.088983050847 0  C 276.399152542373 0  279 2.62307692307698  279 5.96153846153846  L 279 25.0384615384615  C 279 28.376923076923  276.399152542373 31  273.088983050847 31  L 5.91101694915254 31  C 2.60084745762711 31  0 28.376923076923  0 25.0384615384615  Z " fill-rule="evenodd" />
    </mask>
  </defs>
  <g transform="matrix(1 0 0 1 -1034 -497 )">
    <path d="M 0 25.0384615384615  L 0 5.96153846153846  C 0 2.62307692307698  2.60084745762711 0  5.91101694915254 0  L 232.198654037883 0  L 273.088983050847 0  C 276.399152542373 0  279 2.62307692307698  279 5.96153846153846  L 279 25.0384615384615  C 279 28.376923076923  276.399152542373 31  273.088983050847 31  L 5.91101694915254 31  C 2.60084745762711 31  0 28.376923076923  0 25.0384615384615  Z " fill-rule="nonzero" fill="#000000" stroke="none" fill-opacity="0.447058823529412" transform="matrix(1 0 0 1 1034 497 )" />
    <path d="M 0 25.0384615384615  L 0 5.96153846153846  C 0 2.62307692307698  2.60084745762711 0  5.91101694915254 0  L 232.198654037883 0  L 273.088983050847 0  C 276.399152542373 0  279 2.62307692307698  279 5.96153846153846  L 279 25.0384615384615  C 279 28.376923076923  276.399152542373 31  273.088983050847 31  L 5.91101694915254 31  C 2.60084745762711 31  0 28.376923076923  0 25.0384615384615  Z " stroke-width="2" stroke="#797979" fill="none" transform="matrix(1 0 0 1 1034 497 )" mask="url(#clip4)" />
  </g>
</svg>