<?xml version="1.0" encoding="utf-8"?>
<svg version="1.1" xmlns:xlink="http://www.w3.org/1999/xlink" width="127px" height="33px" xmlns="http://www.w3.org/2000/svg">
  <g transform="matrix(1 0 0 1 -196 -324 )">
    <path d="M 199 339  A 12 12 0 0 1 211 327 L 308 327  A 12 12 0 0 1 320 339 L 320 342  A 12 12 0 0 1 308 354 L 211 354  A 12 12 0 0 1 199 342 L 199 339  Z " fill-rule="nonzero" fill="#7f7f7f" stroke="none" fill-opacity="0.313725490196078" />
    <path d="M 197.5 339  A 13.5 13.5 0 0 1 211 325.5 L 308 325.5  A 13.5 13.5 0 0 1 321.5 339 L 321.5 342  A 13.5 13.5 0 0 1 308 355.5 L 211 355.5  A 13.5 13.5 0 0 1 197.5 342 L 197.5 339  Z " stroke-width="3" stroke="#ffffff" fill="none" stroke-opacity="0.996078431372549" />
  </g>
</svg>