<?xml version="1.0" encoding="utf-8"?>
<svg version="1.1" xmlns:xlink="http://www.w3.org/1999/xlink" width="33px" height="36px" xmlns="http://www.w3.org/2000/svg">
  <g transform="matrix(1 0 0 1 -833 -335 )">
    <path d="M 11.7890625 29.7890625  C 11.9296875 29.6484375  12 29.46875  12 29.25  L 12 12.75  C 12 12.53125  11.9296875 12.3515625  11.7890625 12.2109375  C 11.6484375 12.0703125  11.46875 12  11.25 12  L 9.75 12  C 9.53125 12  9.3515625 12.0703125  9.2109375 12.2109375  C 9.0703125 12.3515625  9 12.53125  9 12.75  L 9 29.25  C 9 29.46875  9.0703125 29.6484375  9.2109375 29.7890625  C 9.3515625 29.9296875  9.53125 30  9.75 30  L 11.25 30  C 11.46875 30  11.6484375 29.9296875  11.7890625 29.7890625  Z M 17.7890625 29.7890625  C 17.9296875 29.6484375  18 29.46875  18 29.25  L 18 12.75  C 18 12.53125  17.9296875 12.3515625  17.7890625 12.2109375  C 17.6484375 12.0703125  17.46875 12  17.25 12  L 15.75 12  C 15.53125 12  15.3515625 12.0703125  15.2109375 12.2109375  C 15.0703125 12.3515625  15 12.53125  15 12.75  L 15 29.25  C 15 29.46875  15.0703125 29.6484375  15.2109375 29.7890625  C 15.3515625 29.9296875  15.53125 30  15.75 30  L 17.25 30  C 17.46875 30  17.6484375 29.9296875  17.7890625 29.7890625  Z M 23.7890625 29.7890625  C 23.9296875 29.6484375  24 29.46875  24 29.25  L 24 12.75  C 24 12.53125  23.9296875 12.3515625  23.7890625 12.2109375  C 23.6484375 12.0703125  23.46875 12  23.25 12  L 21.75 12  C 21.53125 12  21.3515625 12.0703125  21.2109375 12.2109375  C 21.0703125 12.3515625  21 12.53125  21 12.75  L 21 29.25  C 21 29.46875  21.0703125 29.6484375  21.2109375 29.7890625  C 21.3515625 29.9296875  21.53125 30  21.75 30  L 23.25 30  C 23.46875 30  23.6484375 29.9296875  23.7890625 29.7890625  Z M 12.3984375 3.2578125  L 11.25 6  L 21.75 6  L 20.625 3.2578125  C 20.515625 3.1171875  20.3828125 3.03125  20.2265625 3  L 12.796875 3  C 12.640625 3.03125  12.5078125 3.1171875  12.3984375 3.2578125  Z M 32.7890625 6.2109375  C 32.9296875 6.3515625  33 6.53125  33 6.75  L 33 8.25  C 33 8.46875  32.9296875 8.6484375  32.7890625 8.7890625  C 32.6484375 8.9296875  32.46875 9  32.25 9  L 30 9  L 30 31.21875  C 30 32.515625  29.6328125 33.63671875  28.8984375 34.58203125  C 28.1640625 35.52734375  27.28125 36  26.25 36  L 6.75 36  C 5.71875 36  4.8359375 35.54296875  4.1015625 34.62890625  C 3.3671875 33.71484375  3 32.609375  3 31.3125  L 3 9  L 0.75 9  C 0.53125 9  0.3515625 8.9296875  0.2109375 8.7890625  C 0.0703125 8.6484375  0 8.46875  0 8.25  L 0 6.75  C 0 6.53125  0.0703125 6.3515625  0.2109375 6.2109375  C 0.3515625 6.0703125  0.53125 6  0.75 6  L 7.9921875 6  L 9.6328125 2.0859375  C 9.8671875 1.5078125  10.2890625 1.015625  10.8984375 0.609375000000001  C 11.5078125 0.203124999999998  12.125 0  12.75 0  L 20.25 0  C 20.875 0  21.4921875 0.203124999999998  22.1015625 0.609375000000001  C 22.7109375 1.015625  23.1328125 1.5078125  23.3671875 2.0859375  L 25.0078125 6  L 32.25 6  C 32.46875 6  32.6484375 6.0703125  32.7890625 6.2109375  Z " fill-rule="nonzero" fill="#d9001b" stroke="none" fill-opacity="0.63921568627451" transform="matrix(1 0 0 1 833 335 )" />
  </g>
</svg>