<?xml version="1.0" encoding="utf-8"?>
<svg version="1.1" xmlns:xlink="http://www.w3.org/1999/xlink" width="19px" height="10px" xmlns="http://www.w3.org/2000/svg">
  <g transform="matrix(1 0 0 1 -848 -61 )">
    <path d="M 17.9444444444444 1.25  L 17.9444444444444 2.5  C 18.2358217592593 2.5  18.4845920138889 2.59765625  18.6907552083333 2.79296875  C 18.8969184027778 2.98828125  19 3.22395833333333  19 3.5  L 19 6.5  C 19 6.77604166666667  18.8969184027778 7.01171875  18.6907552083333 7.20703125  C 18.4845920138889 7.40234375  18.2358217592593 7.5  17.9444444444444 7.5  L 17.9444444444444 8.75  C 17.9444444444444 9.09375  17.8152488425926 9.38802083333333  17.5568576388889 9.6328125  C 17.2984664351852 9.87760416666667  16.9878472222222 10  16.625 10  L 1.31944444444444 10  C 0.956597222222222 10  0.645978009259259 9.87760416666667  0.387586805555556 9.6328125  C 0.129195601851852 9.38802083333333  0 9.09375  0 8.75  L 0 1.25  C 0 0.90625  0.129195601851852 0.611979166666666  0.387586805555556 0.3671875  C 0.645978009259259 0.122395833333332  0.956597222222222 0  1.31944444444444 0  L 16.625 0  C 16.9878472222222 0  17.2984664351852 0.122395833333332  17.5568576388889 0.3671875  C 17.8152488425926 0.611979166666666  17.9444444444444 0.90625  17.9444444444444 1.25  Z M 16.8888888888889 6.5  L 17.9444444444444 6.5  L 17.9444444444444 3.5  L 16.8888888888889 3.5  L 16.8888888888889 1.25  C 16.8888888888889 1.17708333333333  16.8641493055556 1.1171875  16.8146701388889 1.0703125  C 16.7651909722222 1.0234375  16.7019675925926 1  16.625 1  L 1.31944444444444 1  C 1.24247685185185 1  1.17925347222222 1.0234375  1.12977430555556 1.0703125  C 1.08029513888889 1.1171875  1.05555555555556 1.17708333333333  1.05555555555556 1.25  L 1.05555555555556 8.75  C 1.05555555555556 8.82291666666667  1.08029513888889 8.8828125  1.12977430555556 8.9296875  C 1.17925347222222 8.9765625  1.24247685185185 9  1.31944444444444 9  L 16.625 9  C 16.7019675925926 9  16.7651909722222 8.9765625  16.8146701388889 8.9296875  C 16.8641493055556 8.8828125  16.8888888888889 8.82291666666667  16.8888888888889 8.75  L 16.8888888888889 6.5  Z " fill-rule="nonzero" fill="#d9001b" stroke="none" transform="matrix(1 0 0 1 848 61 )" />
  </g>
</svg>