<?xml version="1.0" encoding="utf-8"?>
<svg version="1.1" xmlns:xlink="http://www.w3.org/1999/xlink" width="36px" height="33px" xmlns="http://www.w3.org/2000/svg">
  <g transform="matrix(1 0 0 1 -339 -517 )">
    <path d="M 15.39375 19.8824531516184  C 16.33125 18.9454855195911  16.8 17.8148779102783  16.8 16.4906303236797  C 16.8 15.1663827370812  16.33125 14.0357751277683  15.39375 13.0988074957411  C 14.45625 12.1618398637138  13.325 11.6933560477002  12 11.6933560477002  C 10.675 11.6933560477002  9.54375 12.1618398637138  8.60625 13.0988074957411  C 7.66875 14.0357751277683  7.2 15.1663827370812  7.2 16.4906303236797  C 7.2 17.8148779102783  7.66875 18.9454855195911  8.60625 19.8824531516184  C 9.54375 20.8194207836457  10.675 21.2879045996593  12 21.2879045996593  C 13.325 21.2879045996593  14.45625 20.8194207836457  15.39375 19.8824531516184  Z M 30.496875 27.7810902896082  C 30.965625 27.3126064735945  31.2 26.7473026689381  31.2 26.0851788756388  C 31.2 25.4355479840999  30.9625 24.8733674048836  30.4875 24.3986371379898  C 30.0125 23.923906871096  29.45 23.6865417376491  28.8 23.6865417376491  C 28.15 23.6865417376491  27.5875 23.923906871096  27.1125 24.3986371379898  C 26.6375 24.8733674048836  26.4 25.4355479840999  26.4 26.0851788756388  C 26.4 26.7473026689381  26.634375 27.3126064735945  27.103125 27.7810902896082  C 27.571875 28.2495741056218  28.1375 28.4838160136286  28.8 28.4838160136286  C 29.4625 28.4838160136286  30.028125 28.2495741056218  30.496875 27.7810902896082  Z M 30.496875 8.59199318568995  C 30.965625 8.12350936967632  31.2 7.55820556501987  31.2 6.89608177172062  C 31.2 6.24645088018171  30.9625 5.68427030096536  30.4875 5.20954003407155  C 30.0125 4.73480976717774  29.45 4.49744463373083  28.8 4.49744463373083  C 28.15 4.49744463373083  27.5875 4.73480976717774  27.1125 5.20954003407155  C 26.6375 5.68427030096536  26.4 6.24645088018171  26.4 6.89608177172062  C 26.4 7.55820556501987  26.634375 8.12350936967632  27.103125 8.59199318568995  C 27.571875 9.06047700170358  28.1375 9.29471890971039  28.8 9.29471890971039  C 29.4625 9.29471890971039  30.028125 9.06047700170358  30.496875 8.59199318568995  Z M 23.86875 14.4199318568995  C 23.95625 14.5261215218626  24 14.6479273140261  24 14.7853492333901  L 24 18.252129471891  C 24 18.3770584894946  23.95625 18.4988642816581  23.86875 18.6175468483816  C 23.78125 18.7362294151051  23.68125 18.801817149347  23.56875 18.8143100511073  L 20.6625 19.2640545144804  C 20.525 19.7013060760931  20.325 20.1760363429869  20.0625 20.6882453151618  C 20.4875 21.2879045996593  21.05 22.0062464508802  21.75 22.8432708688245  C 21.8375 22.9806927881885  21.88125 23.1056218057922  21.88125 23.2180579216354  C 21.88125 23.3679727427598  21.8375 23.4866553094833  21.75 23.5741056218058  C 21.4625 23.9488926746167  20.946875 24.507950028393  20.203125 25.2512776831346  C 19.459375 25.9946053378762  18.96875 26.366269165247  18.73125 26.366269165247  C 18.59375 26.366269165247  18.4625 26.3225440090857  18.3375 26.2350936967632  L 16.18125 24.5485519591141  C 15.71875 24.785917092561  15.2375 24.9795570698467  14.7375 25.129471890971  C 14.6 26.4787052810903  14.45625 27.4469051675185  14.30625 28.0340715502555  C 14.21875 28.3339011925043  14.03125 28.4838160136286  13.74375 28.4838160136286  L 10.25625 28.4838160136286  C 10.11875 28.4838160136286  9.99375 28.4369676320273  9.88125 28.3432708688245  C 9.76875 28.2495741056218  9.70625 28.1402612152186  9.69375 28.015332197615  L 9.2625 25.1482112436116  C 8.8375 25.023282226008  8.36875 24.8296422487223  7.85625 24.5672913117547  L 5.64375 26.2350936967632  C 5.55625 26.3225440090857  5.43125 26.366269165247  5.26875 26.366269165247  C 5.13125 26.366269165247  5 26.3162975582056  4.875 26.2163543441227  C 3.075 24.5547984099943  2.175 23.5553662691652  2.175 23.2180579216354  C 2.175 23.1056218057922  2.21875 22.9869392390687  2.30625 22.8620102214651  C 2.43125 22.68710959682  2.6875 22.3560477001704  3.075 21.8688245315162  C 3.4625 21.381601362862  3.75625 21.0005678591709  3.95625 20.7257240204429  C 3.66875 20.1760363429869  3.45 19.663827370812  3.3 19.1890971039182  L 0.45 18.7393526405451  C 0.325 18.7268597387848  0.21875 18.6675184554231  0.13125 18.56132879046  C 0.04375 18.4551391254969  0 18.3333333333333  0 18.1959114139693  L 0 14.7291311754685  C 0 14.6042021578648  0.04375 14.4823963657013  0.13125 14.3637137989779  C 0.21875 14.2450312322544  0.31875 14.1794434980125  0.43125 14.1669505962521  L 3.3375 13.717206132879  C 3.475 13.2799545712663  3.675 12.8052243043725  3.9375 12.2930153321976  C 3.5125 11.6933560477002  2.95 10.9750141964793  2.25 10.1379897785349  C 2.1625 10.0005678591709  2.11875 9.87563884156729  2.11875 9.76320272572402  C 2.11875 9.61328790459966  2.1625 9.48835888699602  2.25 9.38841567291312  C 2.525 9.01362862010221  3.0375 8.45769449176604  3.7875 7.7206132879046  C 4.5375 6.98353208404315  5.03125 6.61499148211244  5.26875 6.61499148211244  C 5.40625 6.61499148211244  5.5375 6.65871663827371  5.6625 6.74616695059625  L 7.81875 8.43270868824531  C 8.24375 8.20783645655877  8.725 8.00795002839296  9.2625 7.83304940374787  C 9.4 6.48381601362862  9.54375 5.52186257808063  9.69375 4.94718909710392  C 9.78125 4.6473594548552  9.96875 4.49744463373083  10.25625 4.49744463373083  L 13.74375 4.49744463373083  C 13.88125 4.49744463373083  14.00625 4.5442930153322  14.11875 4.63798977853492  C 14.23125 4.73168654173765  14.29375 4.84099943214083  14.30625 4.96592844974446  L 14.7375 7.83304940374787  C 15.1625 7.9579784213515  15.63125 8.15161839863714  16.14375 8.41396933560477  L 18.35625 6.74616695059625  C 18.45625 6.65871663827371  18.58125 6.61499148211244  18.73125 6.61499148211244  C 18.86875 6.61499148211244  19 6.66496308915389  19.125 6.7649063032368  C 20.925 8.42646223736513  21.825 9.42589437819421  21.825 9.76320272572402  C 21.825 9.86314593980693  21.78125 9.98182850653038  21.69375 10.1192504258944  C 21.54375 10.3191368540602  21.28125 10.65644520159  20.90625 11.1311754684838  C 20.53125 11.6059057353776  20.25 11.9806927881885  20.0625 12.2555366269165  C 20.35 12.855195911414  20.5625 13.3674048835889  20.7 13.7921635434412  L 23.55 14.2231686541738  C 23.675 14.2481544576945  23.78125 14.3137421919364  23.86875 14.4199318568995  Z M 33.20625 24.1925042589438  C 35.06875 24.3798977853492  36 24.5735377626349  36 24.7734241908007  L 36 27.396933560477  C 36 27.5968199886428  35.06875 27.7904599659284  33.20625 27.9778534923339  C 33.05625 28.3151618398637  32.86875 28.6399772856332  32.64375 28.9522998296423  C 33.28125 30.3639977285633  33.6 31.2260079500284  33.6 31.5383304940375  C 33.6 31.5883021010789  33.575 31.6320272572402  33.525 31.6695059625213  C 32 32.5565019875071  31.225 33  31.2 33  C 31.1 33  30.8125 32.7064168086315  30.3375 32.1192504258944  C 29.8625 31.5320840431573  29.5375 31.1073253833049  29.3625 30.8449744463373  C 29.1125 30.869960249858  28.925 30.8824531516184  28.8 30.8824531516184  C 28.675 30.8824531516184  28.4875 30.869960249858  28.2375 30.8449744463373  C 28.0625 31.1073253833049  27.7375 31.5320840431573  27.2625 32.1192504258944  C 26.7875 32.7064168086315  26.5 33  26.4 33  C 26.375 33  25.6 32.5565019875071  24.075 31.6695059625213  C 24.025 31.6320272572402  24 31.5883021010789  24 31.5383304940375  C 24 31.2260079500284  24.31875 30.3639977285633  24.95625 28.9522998296423  C 24.73125 28.6399772856332  24.54375 28.3151618398637  24.39375 27.9778534923339  C 22.53125 27.7904599659284  21.6 27.5968199886428  21.6 27.396933560477  L 21.6 24.7734241908007  C 21.6 24.5735377626349  22.53125 24.3798977853492  24.39375 24.1925042589438  C 24.55625 23.8302101078932  24.74375 23.5053946621238  24.95625 23.2180579216354  C 24.31875 21.8063600227144  24 20.9443498012493  24 20.6320272572402  C 24 20.5820556501988  24.025 20.5383304940375  24.075 20.5008517887564  C 24.125 20.4758659852357  24.34375 20.350936967632  24.73125 20.1260647359455  C 25.11875 19.9011925042589  25.4875 19.6888131743328  25.8375 19.488926746167  C 26.1875 19.2890403180011  26.375 19.1890971039182  26.4 19.1890971039182  C 26.5 19.1890971039182  26.7875 19.4795570698467  27.2625 20.0604770017036  C 27.7375 20.6413969335605  28.0625 21.0630323679727  28.2375 21.3253833049404  C 28.4875 21.3003975014196  28.675 21.2879045996593  28.8 21.2879045996593  C 28.925 21.2879045996593  29.1125 21.3003975014196  29.3625 21.3253833049404  C 30 20.4383872799546  30.575 19.7387847813742  31.0875 19.2265758091993  L 31.2 19.1890971039182  C 31.25 19.1890971039182  32.025 19.6263486655309  33.525 20.5008517887564  C 33.575 20.5383304940375  33.6 20.5820556501988  33.6 20.6320272572402  C 33.6 20.9443498012493  33.28125 21.8063600227144  32.64375 23.2180579216354  C 32.85625 23.5053946621238  33.04375 23.8302101078932  33.20625 24.1925042589438  Z M 33.20625 5.00340715502555  C 35.06875 5.19080068143101  36 5.38444065871664  36 5.58432708688245  L 36 8.20783645655877  C 36 8.40772288472459  35.06875 8.60136286201022  33.20625 8.78875638841567  C 33.05625 9.12606473594549  32.86875 9.45088018171493  32.64375 9.76320272572402  C 33.28125 11.1749006246451  33.6 12.0369108461102  33.6 12.3492333901192  C 33.6 12.3992049971607  33.575 12.442930153322  33.525 12.4804088586031  C 32 13.3674048835889  31.225 13.8109028960818  31.2 13.8109028960818  C 31.1 13.8109028960818  30.8125 13.5173197047132  30.3375 12.9301533219761  C 29.8625 12.3429869392391  29.5375 11.9182282793867  29.3625 11.6558773424191  C 29.1125 11.6808631459398  28.925 11.6933560477002  28.8 11.6933560477002  C 28.675 11.6933560477002  28.4875 11.6808631459398  28.2375 11.6558773424191  C 28.0625 11.9182282793867  27.7375 12.3429869392391  27.2625 12.9301533219761  C 26.7875 13.5173197047132  26.5 13.8109028960818  26.4 13.8109028960818  C 26.375 13.8109028960818  25.6 13.3674048835889  24.075 12.4804088586031  C 24.025 12.442930153322  24 12.3992049971607  24 12.3492333901192  C 24 12.0369108461102  24.31875 11.1749006246451  24.95625 9.76320272572402  C 24.73125 9.45088018171493  24.54375 9.12606473594549  24.39375 8.78875638841567  C 22.53125 8.60136286201022  21.6 8.40772288472459  21.6 8.20783645655877  L 21.6 5.58432708688245  C 21.6 5.38444065871664  22.53125 5.19080068143101  24.39375 5.00340715502555  C 24.55625 4.64111300397501  24.74375 4.31629755820556  24.95625 4.02896081771721  C 24.31875 2.61726291879614  24 1.75525269733106  24 1.44293015332198  C 24 1.39295854628052  24.025 1.34923339011925  24.075 1.31175468483816  C 24.125 1.28676888131743  24.34375 1.1618398637138  24.73125 0.936967632027258  C 25.11875 0.712095400340716  25.4875 0.499716070414533  25.8375 0.299829642248723  C 26.1875 0.0999432140829051  26.375 0  26.4 0  C 26.5 0  26.7875 0.290459965928448  27.2625 0.871379897785348  C 27.7375 1.45229982964225  28.0625 1.87393526405452  28.2375 2.13628620102215  C 28.4875 2.11130039750142  28.675 2.09880749574106  28.8 2.09880749574106  C 28.925 2.09880749574106  29.1125 2.11130039750142  29.3625 2.13628620102215  C 30 1.24929017603634  30.575 0.549687677455989  31.0875 0.0374787052810903  L 31.2 0  C 31.25 0  32.025 0.437251561612718  33.525 1.31175468483816  C 33.575 1.34923339011925  33.6 1.39295854628052  33.6 1.44293015332198  C 33.6 1.75525269733106  33.28125 2.61726291879614  32.64375 4.02896081771721  C 32.85625 4.31629755820556  33.04375 4.64111300397501  33.20625 5.00340715502555  Z " fill-rule="nonzero" fill="#000000" stroke="none" fill-opacity="0.701960784313725" transform="matrix(1 0 0 1 339 517 )" />
  </g>
</svg>