<?xml version="1.0" encoding="utf-8"?>
<svg version="1.1" xmlns:xlink="http://www.w3.org/1999/xlink" width="32px" height="32px" xmlns="http://www.w3.org/2000/svg">
  <g transform="matrix(1 0 0 1 -133 -518 )">
    <path d="M 7.96875 2.14583333333333  C 10.4201388888889 0.715277777777775  13.0972222222222 0  16 0  C 18.9027777777778 0  21.5798611111111 0.715277777777775  24.03125 2.14583333333333  C 26.4826388888889 3.57638888888889  28.4236111111111 5.51736111111111  29.8541666666667 7.96875  C 31.2847222222222 10.4201388888889  32 13.0972222222222  32 16  C 32 18.9027777777778  31.2847222222222 21.5798611111111  29.8541666666667 24.03125  C 28.4236111111111 26.4826388888889  26.4826388888889 28.4236111111111  24.03125 29.8541666666667  C 21.5798611111111 31.2847222222222  18.9027777777778 32  16 32  C 13.0972222222222 32  10.4201388888889 31.2847222222222  7.96875 29.8541666666667  C 5.51736111111111 28.4236111111111  3.57638888888889 26.4826388888889  2.14583333333333 24.03125  C 0.715277777777778 21.5798611111111  0 18.9027777777778  0 16  C 0 13.0972222222222  0.715277777777778 10.4201388888889  2.14583333333333 7.96875  C 3.57638888888889 5.51736111111111  5.51736111111111 3.57638888888889  7.96875 2.14583333333333  Z M 22.6041666666667 10.6041666666667  C 22.3680555555556 10.5347222222222  22.0694444444444 10.6180555555556  21.7083333333333 10.8541666666667  C 21.6805555555556 10.8680555555556  21.6145833333333 10.9340277777778  21.5104166666667 11.0520833333333  C 21.40625 11.1701388888889  21.3125 11.2361111111111  21.2291666666667 11.25  C 21.2569444444444 11.25  21.2881944444444 11.2152777777778  21.3229166666667 11.1458333333333  C 21.3576388888889 11.0763888888889  21.3923611111111 11  21.4270833333333 10.9166666666667  C 21.4618055555556 10.8333333333333  21.4861111111111 10.7847222222222  21.5 10.7708333333333  C 21.5833333333333 10.6736111111111  21.7361111111111 10.5694444444444  21.9583333333333 10.4583333333333  C 22.1527777777778 10.375  22.5138888888889 10.2916666666667  23.0416666666667 10.2083333333333  C 23.5138888888889 10.0972222222222  23.8680555555556 10.1736111111111  24.1041666666667 10.4375  C 24.0763888888889 10.4097222222222  24.1423611111111 10.3194444444444  24.3020833333333 10.1666666666667  C 24.4618055555556 10.0138888888889  24.5625 9.93055555555555  24.6041666666667 9.91666666666667  C 24.6458333333333 9.88888888888889  24.75 9.85763888888889  24.9166666666667 9.82291666666667  C 25.0833333333333 9.78819444444444  25.1875 9.73611111111111  25.2291666666667 9.66666666666667  L 25.2708333333333 9.20833333333333  C 25.1041666666667 9.22222222222222  24.9826388888889 9.17361111111111  24.90625 9.0625  C 24.8298611111111 8.95138888888889  24.7847222222222 8.80555555555555  24.7708333333333 8.625  C 24.7708333333333 8.65277777777778  24.7291666666667 8.70833333333333  24.6458333333333 8.79166666666667  C 24.6458333333333 8.69444444444444  24.6145833333333 8.63888888888889  24.5520833333333 8.625  C 24.4895833333333 8.61111111111111  24.4097222222222 8.61805555555555  24.3125 8.64583333333333  C 24.2152777777778 8.67361111111111  24.1527777777778 8.68055555555555  24.125 8.66666666666667  C 23.9861111111111 8.625  23.8819444444444 8.57291666666667  23.8125 8.51041666666667  C 23.7430555555556 8.44791666666667  23.6875 8.33333333333333  23.6458333333333 8.16666666666667  C 23.6041666666667 8  23.5763888888889 7.89583333333333  23.5625 7.85416666666667  C 23.5347222222222 7.78472222222222  23.46875 7.70833333333333  23.3645833333333 7.625  C 23.2604166666667 7.54166666666667  23.1944444444444 7.47222222222222  23.1666666666667 7.41666666666667  C 23.1527777777778 7.38888888888889  23.1354166666667 7.35069444444444  23.1145833333333 7.30208333333333  C 23.09375 7.25347222222222  23.0729166666667 7.20833333333333  23.0520833333333 7.16666666666667  C 23.03125 7.125  23.0034722222222 7.08680555555555  22.96875 7.05208333333333  C 22.9340277777778 7.01736111111111  22.8958333333333 7  22.8541666666667 7  C 22.8125 7  22.7638888888889 7.03472222222222  22.7083333333333 7.10416666666667  C 22.6527777777778 7.17361111111111  22.6006944444444 7.24305555555555  22.5520833333333 7.3125  C 22.5034722222222 7.38194444444444  22.4722222222222 7.41666666666667  22.4583333333333 7.41666666666667  C 22.4166666666667 7.38888888888889  22.375 7.37847222222222  22.3333333333333 7.38541666666667  C 22.2916666666667 7.39236111111111  22.2604166666667 7.39930555555555  22.2395833333333 7.40625  C 22.21875 7.41319444444444  22.1875 7.43402777777778  22.1458333333333 7.46875  C 22.1041666666667 7.50347222222222  22.0694444444444 7.52777777777778  22.0416666666667 7.54166666666667  C 22 7.56944444444444  21.9409722222222 7.59027777777778  21.8645833333333 7.60416666666667  C 21.7881944444444 7.61805555555555  21.7291666666667 7.63194444444444  21.6875 7.64583333333333  C 21.8958333333333 7.57638888888889  21.8888888888889 7.5  21.6666666666667 7.41666666666667  C 21.5277777777778 7.36111111111111  21.4166666666667 7.34027777777778  21.3333333333333 7.35416666666667  C 21.4583333333333 7.29861111111111  21.5104166666667 7.21527777777778  21.4895833333333 7.10416666666667  C 21.46875 6.99305555555555  21.4097222222222 6.89583333333333  21.3125 6.8125  L 21.4166666666667 6.8125  C 21.4027777777778 6.75694444444444  21.34375 6.69791666666667  21.2395833333333 6.63541666666667  C 21.1354166666667 6.57291666666667  21.0138888888889 6.51388888888889  20.875 6.45833333333333  C 20.7361111111111 6.40277777777778  20.6458333333333 6.36111111111111  20.6041666666667 6.33333333333333  C 20.4930555555556 6.26388888888889  20.2569444444444 6.19791666666667  19.8958333333333 6.13541666666667  C 19.5347222222222 6.07291666666667  19.3055555555556 6.06944444444444  19.2083333333333 6.125  C 19.1388888888889 6.20833333333333  19.1076388888889 6.28125  19.1145833333333 6.34375  C 19.1215277777778 6.40625  19.1493055555556 6.50347222222222  19.1979166666667 6.63541666666667  C 19.2465277777778 6.76736111111111  19.2708333333333 6.85416666666667  19.2708333333333 6.89583333333333  C 19.2847222222222 6.97916666666667  19.2465277777778 7.06944444444444  19.15625 7.16666666666667  C 19.0659722222222 7.26388888888889  19.0208333333333 7.34722222222222  19.0208333333333 7.41666666666667  C 19.0208333333333 7.51388888888889  19.1180555555556 7.62152777777778  19.3125 7.73958333333333  C 19.5069444444444 7.85763888888889  19.5763888888889 8.00694444444444  19.5208333333333 8.1875  C 19.4791666666667 8.29861111111111  19.3680555555556 8.40972222222222  19.1875 8.52083333333333  C 19.0069444444444 8.63194444444444  18.8958333333333 8.71527777777778  18.8541666666667 8.77083333333333  C 18.7847222222222 8.88194444444444  18.7743055555556 9.01041666666667  18.8229166666667 9.15625  C 18.8715277777778 9.30208333333333  18.9444444444444 9.41666666666667  19.0416666666667 9.5  C 19.0694444444444 9.52777777777778  19.0798611111111 9.55555555555555  19.0729166666667 9.58333333333333  C 19.0659722222222 9.61111111111111  19.0416666666667 9.64236111111111  19 9.67708333333333  C 18.9583333333333 9.71180555555555  18.9201388888889 9.73958333333333  18.8854166666667 9.76041666666667  C 18.8506944444444 9.78125  18.8055555555556 9.80555555555555  18.75 9.83333333333333  L 18.6875 9.875  C 18.5347222222222 9.94444444444444  18.3923611111111 9.90277777777778  18.2604166666667 9.75  C 18.1284722222222 9.59722222222222  18.0347222222222 9.41666666666667  17.9791666666667 9.20833333333333  C 17.8819444444444 8.86111111111111  17.7708333333333 8.65277777777778  17.6458333333333 8.58333333333333  C 17.3263888888889 8.47222222222222  17.125 8.47916666666667  17.0416666666667 8.60416666666667  C 16.9722222222222 8.42361111111111  16.6875 8.24305555555555  16.1875 8.0625  C 15.8402777777778 7.9375  15.4375 7.90972222222222  14.9791666666667 7.97916666666667  C 15.0625 7.96527777777778  15.0625 7.86111111111111  14.9791666666667 7.66666666666667  C 14.8819444444444 7.45833333333333  14.75 7.375  14.5833333333333 7.41666666666667  C 14.625 7.33333333333333  14.6527777777778 7.21180555555555  14.6666666666667 7.05208333333333  C 14.6805555555556 6.89236111111111  14.6875 6.79861111111111  14.6875 6.77083333333333  C 14.7291666666667 6.59027777777778  14.8125 6.43055555555555  14.9375 6.29166666666667  C 14.9513888888889 6.27777777777778  15 6.21875  15.0833333333333 6.11458333333333  C 15.1666666666667 6.01041666666667  15.2326388888889 5.91666666666667  15.28125 5.83333333333333  C 15.3298611111111 5.75  15.3333333333333 5.70833333333333  15.2916666666667 5.70833333333333  C 15.7777777777778 5.76388888888889  16.125 5.6875  16.3333333333333 5.47916666666667  C 16.4027777777778 5.40972222222222  16.4826388888889 5.29166666666667  16.5729166666667 5.125  C 16.6631944444444 4.95833333333333  16.7361111111111 4.84027777777778  16.7916666666667 4.77083333333333  C 16.9166666666667 4.6875  17.0138888888889 4.64930555555555  17.0833333333333 4.65625  C 17.1527777777778 4.66319444444444  17.2534722222222 4.70138888888889  17.3854166666667 4.77083333333333  C 17.5173611111111 4.84027777777778  17.6180555555556 4.875  17.6875 4.875  C 17.8819444444444 4.88888888888889  17.9895833333333 4.8125  18.0104166666667 4.64583333333333  C 18.03125 4.47916666666667  17.9791666666667 4.34027777777778  17.8541666666667 4.22916666666667  C 18.0208333333333 4.24305555555555  18.0416666666667 4.125  17.9166666666667 3.875  C 17.8611111111111 3.77777777777778  17.8055555555556 3.71527777777778  17.75 3.6875  C 17.5833333333333 3.63194444444444  17.3958333333333 3.66666666666667  17.1875 3.79166666666667  C 17.0763888888889 3.84722222222222  17.0902777777778 3.90277777777778  17.2291666666667 3.95833333333333  C 17.2152777777778 3.94444444444444  17.1493055555556 4.01736111111111  17.03125 4.17708333333333  C 16.9131944444444 4.33680555555555  16.7986111111111 4.45833333333333  16.6875 4.54166666666667  C 16.5763888888889 4.625  16.4652777777778 4.59027777777778  16.3541666666667 4.4375  C 16.3402777777778 4.42361111111111  16.3020833333333 4.32986111111111  16.2395833333333 4.15625  C 16.1770833333333 3.98263888888889  16.1111111111111 3.88888888888889  16.0416666666667 3.875  C 15.9305555555556 3.875  15.8194444444444 3.97916666666667  15.7083333333333 4.1875  C 15.75 4.07638888888889  15.6736111111111 3.97222222222222  15.4791666666667 3.875  C 15.2847222222222 3.77777777777778  15.1180555555556 3.72222222222222  14.9791666666667 3.70833333333333  C 15.2430555555556 3.54166666666667  15.1875 3.35416666666667  14.8125 3.14583333333333  C 14.7152777777778 3.09027777777778  14.5729166666667 3.05555555555555  14.3854166666667 3.04166666666667  C 14.1979166666667 3.02777777777778  14.0625 3.05555555555555  13.9791666666667 3.125  C 13.9097222222222 3.22222222222222  13.8715277777778 3.30208333333333  13.8645833333333 3.36458333333333  C 13.8576388888889 3.42708333333333  13.8923611111111 3.48263888888889  13.96875 3.53125  C 14.0451388888889 3.57986111111111  14.1180555555556 3.61805555555555  14.1875 3.64583333333333  C 14.2569444444444 3.67361111111111  14.3368055555556 3.70138888888889  14.4270833333333 3.72916666666667  C 14.5173611111111 3.75694444444444  14.5763888888889 3.77777777777778  14.6041666666667 3.79166666666667  C 14.7986111111111 3.93055555555555  14.8541666666667 4.02777777777778  14.7708333333333 4.08333333333333  C 14.7430555555556 4.09722222222222  14.6840277777778 4.12152777777778  14.59375 4.15625  C 14.5034722222222 4.19097222222222  14.4236111111111 4.22222222222222  14.3541666666667 4.25  C 14.2847222222222 4.27777777777778  14.2430555555556 4.30555555555555  14.2291666666667 4.33333333333333  C 14.1875 4.38888888888889  14.1875 4.48611111111111  14.2291666666667 4.625  C 14.2708333333333 4.76388888888889  14.2569444444444 4.86111111111111  14.1875 4.91666666666667  C 14.1180555555556 4.84722222222222  14.0555555555556 4.72569444444444  14 4.55208333333333  C 13.9444444444444 4.37847222222222  13.8958333333333 4.26388888888889  13.8541666666667 4.20833333333333  C 13.9513888888889 4.33333333333333  13.7777777777778 4.375  13.3333333333333 4.33333333333333  L 13.125 4.3125  C 13.0694444444444 4.3125  12.9583333333333 4.32638888888889  12.7916666666667 4.35416666666667  C 12.625 4.38194444444444  12.4826388888889 4.38888888888889  12.3645833333333 4.375  C 12.2465277777778 4.36111111111111  12.1527777777778 4.30555555555555  12.0833333333333 4.20833333333333  C 12.0277777777778 4.09722222222222  12.0277777777778 3.95833333333333  12.0833333333333 3.79166666666667  C 12.0972222222222 3.73611111111111  12.125 3.72222222222222  12.1666666666667 3.75  C 12.1111111111111 3.70833333333333  12.0347222222222 3.64236111111111  11.9375 3.55208333333333  C 11.8402777777778 3.46180555555555  11.7708333333333 3.40277777777778  11.7291666666667 3.375  C 11.0902777777778 3.58333333333333  10.4375 3.86805555555555  9.77083333333333 4.22916666666667  C 9.85416666666667 4.24305555555555  9.9375 4.23611111111111  10.0208333333333 4.20833333333333  C 10.0902777777778 4.18055555555555  10.1805555555556 4.13541666666667  10.2916666666667 4.07291666666667  C 10.4027777777778 4.01041666666667  10.4722222222222 3.97222222222222  10.5 3.95833333333333  C 10.9722222222222 3.76388888888889  11.2638888888889 3.71527777777778  11.375 3.8125  L 11.4791666666667 3.70833333333333  C 11.6736111111111 3.93055555555555  11.8125 4.10416666666667  11.8958333333333 4.22916666666667  C 11.7986111111111 4.17361111111111  11.5902777777778 4.16666666666667  11.2708333333333 4.20833333333333  C 10.9930555555556 4.29166666666667  10.8402777777778 4.375  10.8125 4.45833333333333  C 10.9097222222222 4.625  10.9444444444444 4.75  10.9166666666667 4.83333333333333  C 10.8611111111111 4.79166666666667  10.78125 4.72222222222222  10.6770833333333 4.625  C 10.5729166666667 4.52777777777778  10.4722222222222 4.45138888888889  10.375 4.39583333333333  C 10.2777777777778 4.34027777777778  10.1736111111111 4.30555555555555  10.0625 4.29166666666667  C 9.84027777777778 4.29166666666667  9.6875 4.29861111111111  9.60416666666667 4.3125  C 7.57638888888889 5.42361111111111  5.94444444444445 6.96527777777778  4.70833333333333 8.9375  C 4.80555555555556 9.03472222222222  4.88888888888889 9.09027777777778  4.95833333333333 9.10416666666667  C 5.01388888888889 9.11805555555555  5.04861111111111 9.18055555555555  5.0625 9.29166666666667  C 5.07638888888889 9.40277777777778  5.09375 9.47916666666667  5.11458333333333 9.52083333333333  C 5.13541666666667 9.5625  5.21527777777778 9.54166666666667  5.35416666666667 9.45833333333333  C 5.47916666666667 9.56944444444444  5.5 9.70138888888889  5.41666666666667 9.85416666666667  C 5.43055555555556 9.84027777777778  5.73611111111111 10.0277777777778  6.33333333333333 10.4166666666667  C 6.59722222222222 10.6527777777778  6.74305555555556 10.7986111111111  6.77083333333333 10.8541666666667  C 6.8125 11.0069444444444  6.74305555555556 11.1319444444444  6.5625 11.2291666666667  C 6.54861111111111 11.2013888888889  6.48611111111111 11.1388888888889  6.375 11.0416666666667  C 6.26388888888889 10.9444444444444  6.20138888888889 10.9166666666667  6.1875 10.9583333333333  C 6.14583333333333 11.0277777777778  6.14930555555556 11.15625  6.19791666666667 11.34375  C 6.24652777777778 11.53125  6.31944444444445 11.6180555555556  6.41666666666667 11.6041666666667  C 6.31944444444445 11.6041666666667  6.25347222222222 11.7152777777778  6.21875 11.9375  C 6.18402777777778 12.1597222222222  6.16666666666667 12.40625  6.16666666666667 12.6770833333333  C 6.16666666666667 12.9479166666667  6.15972222222222 13.1111111111111  6.14583333333333 13.1666666666667  L 6.1875 13.1875  C 6.14583333333333 13.3541666666667  6.18402777777778 13.59375  6.30208333333333 13.90625  C 6.42013888888889 14.21875  6.56944444444445 14.3541666666667  6.75 14.3125  C 6.56944444444445 14.3541666666667  6.70833333333333 14.6527777777778  7.16666666666667 15.2083333333333  C 7.25 15.3194444444444  7.30555555555556 15.3819444444444  7.33333333333333 15.3958333333333  C 7.375 15.4236111111111  7.45833333333333 15.4756944444444  7.58333333333333 15.5520833333333  C 7.70833333333333 15.6284722222222  7.8125 15.6979166666667  7.89583333333333 15.7604166666667  C 7.97916666666667 15.8229166666667  8.04861111111111 15.8958333333333  8.10416666666667 15.9791666666667  C 8.15972222222222 16.0486111111111  8.22916666666667 16.2048611111111  8.3125 16.4479166666667  C 8.39583333333333 16.6909722222222  8.49305555555556 16.8541666666667  8.60416666666667 16.9375  C 8.57638888888889 17.0208333333333  8.64236111111111 17.1597222222222  8.80208333333333 17.3541666666667  C 8.96180555555556 17.5486111111111  9.03472222222222 17.7083333333333  9.02083333333333 17.8333333333333  C 9.00694444444444 17.8333333333333  8.98958333333333 17.8402777777778  8.96875 17.8541666666667  C 8.94791666666667 17.8680555555556  8.93055555555556 17.875  8.91666666666667 17.875  C 8.95833333333333 17.9722222222222  9.06597222222222 18.0694444444444  9.23958333333333 18.1666666666667  C 9.41319444444444 18.2638888888889  9.52083333333333 18.3541666666667  9.5625 18.4375  C 9.57638888888889 18.4791666666667  9.59027777777778 18.5486111111111  9.60416666666667 18.6458333333333  C 9.61805555555556 18.7430555555556  9.63888888888889 18.8194444444444  9.66666666666667 18.875  C 9.69444444444444 18.9305555555556  9.75 18.9444444444444  9.83333333333333 18.9166666666667  C 9.86111111111111 18.6388888888889  9.69444444444444 18.2083333333333  9.33333333333333 17.625  C 9.125 17.2777777777778  9.00694444444444 17.0763888888889  8.97916666666667 17.0208333333333  C 8.9375 16.9513888888889  8.89930555555556 16.84375  8.86458333333333 16.6979166666667  C 8.82986111111111 16.5520833333333  8.79861111111111 16.4513888888889  8.77083333333333 16.3958333333333  C 8.79861111111111 16.3958333333333  8.84027777777778 16.40625  8.89583333333333 16.4270833333333  C 8.95138888888889 16.4479166666667  9.01041666666667 16.4722222222222  9.07291666666667 16.5  C 9.13541666666667 16.5277777777778  9.1875 16.5555555555556  9.22916666666667 16.5833333333333  C 9.27083333333333 16.6111111111111  9.28472222222222 16.6319444444444  9.27083333333333 16.6458333333333  C 9.22916666666667 16.7430555555556  9.24305555555556 16.8645833333333  9.3125 17.0104166666667  C 9.38194444444444 17.15625  9.46527777777778 17.2847222222222  9.5625 17.3958333333333  C 9.65972222222222 17.5069444444444  9.77777777777778 17.6388888888889  9.91666666666667 17.7916666666667  C 10.0555555555556 17.9444444444444  10.1388888888889 18.0347222222222  10.1666666666667 18.0625  C 10.25 18.1458333333333  10.3472222222222 18.28125  10.4583333333333 18.46875  C 10.5694444444444 18.65625  10.5694444444444 18.75  10.4583333333333 18.75  C 10.5833333333333 18.75  10.7222222222222 18.8229166666667  10.875 18.96875  C 11.0277777777778 19.1145833333333  11.1458333333333 19.25  11.2291666666667 19.375  C 11.2986111111111 19.4861111111111  11.3541666666667 19.6666666666667  11.3958333333333 19.9166666666667  C 11.4375 20.1666666666667  11.4722222222222 20.3333333333333  11.5 20.4166666666667  C 11.5277777777778 20.5138888888889  11.5868055555556 20.6076388888889  11.6770833333333 20.6979166666667  C 11.7673611111111 20.7881944444444  11.8541666666667 20.8541666666667  11.9375 20.8958333333333  L 12.2708333333333 21.0625  C 12.2708333333333 21.0625  12.3611111111111 21.1111111111111  12.5416666666667 21.2083333333333  C 12.6111111111111 21.2361111111111  12.7395833333333 21.3090277777778  12.9270833333333 21.4270833333333  C 13.1145833333333 21.5451388888889  13.2638888888889 21.625  13.375 21.6666666666667  C 13.5138888888889 21.7222222222222  13.625 21.75  13.7083333333333 21.75  C 13.7916666666667 21.75  13.8923611111111 21.7326388888889  14.0104166666667 21.6979166666667  C 14.1284722222222 21.6631944444444  14.2222222222222 21.6388888888889  14.2916666666667 21.625  C 14.5 21.5972222222222  14.7013888888889 21.7013888888889  14.8958333333333 21.9375  C 15.0902777777778 22.1736111111111  15.2361111111111 22.3194444444444  15.3333333333333 22.375  C 15.8333333333333 22.6388888888889  16.2152777777778 22.7152777777778  16.4791666666667 22.6041666666667  C 16.4513888888889 22.6180555555556  16.4548611111111 22.6701388888889  16.4895833333333 22.7604166666667  C 16.5243055555556 22.8506944444444  16.5798611111111 22.9583333333333  16.65625 23.0833333333333  C 16.7326388888889 23.2083333333333  16.7951388888889 23.3090277777778  16.84375 23.3854166666667  C 16.8923611111111 23.4618055555556  16.9305555555556 23.5208333333333  16.9583333333333 23.5625  C 17.0277777777778 23.6458333333333  17.1527777777778 23.75  17.3333333333333 23.875  C 17.5138888888889 24  17.6388888888889 24.1041666666667  17.7083333333333 24.1875  C 17.7916666666667 24.1319444444444  17.8402777777778 24.0694444444444  17.8541666666667 24  C 17.8125 24.1111111111111  17.8611111111111 24.25  18 24.4166666666667  C 18.1388888888889 24.5833333333333  18.2638888888889 24.6527777777778  18.375 24.625  C 18.5694444444444 24.5833333333333  18.6666666666667 24.3611111111111  18.6666666666667 23.9583333333333  C 18.2361111111111 24.1666666666667  17.8958333333333 24.0416666666667  17.6458333333333 23.5833333333333  C 17.6458333333333 23.5694444444444  17.6284722222222 23.53125  17.59375 23.46875  C 17.5590277777778 23.40625  17.53125 23.3472222222222  17.5104166666667 23.2916666666667  C 17.4895833333333 23.2361111111111  17.4722222222222 23.1770833333333  17.4583333333333 23.1145833333333  C 17.4444444444444 23.0520833333333  17.4444444444444 23  17.4583333333333 22.9583333333333  C 17.4722222222222 22.9166666666667  17.5069444444444 22.8958333333333  17.5625 22.8958333333333  C 17.6875 22.8958333333333  17.7569444444444 22.8715277777778  17.7708333333333 22.8229166666667  C 17.7847222222222 22.7743055555556  17.7708333333333 22.6875  17.7291666666667 22.5625  C 17.6875 22.4375  17.6597222222222 22.3472222222222  17.6458333333333 22.2916666666667  C 17.6319444444444 22.1805555555556  17.5555555555556 22.0416666666667  17.4166666666667 21.875  C 17.2777777777778 21.7083333333333  17.1944444444444 21.6041666666667  17.1666666666667 21.5625  C 17.0972222222222 21.6875  16.9861111111111 21.7430555555556  16.8333333333333 21.7291666666667  C 16.6805555555556 21.7152777777778  16.5694444444444 21.6527777777778  16.5 21.5416666666667  C 16.5 21.5555555555556  16.4895833333333 21.59375  16.46875 21.65625  C 16.4479166666667 21.71875  16.4375 21.7638888888889  16.4375 21.7916666666667  C 16.2569444444444 21.7916666666667  16.1527777777778 21.7847222222222  16.125 21.7708333333333  C 16.1388888888889 21.7291666666667  16.15625 21.6076388888889  16.1770833333333 21.40625  C 16.1979166666667 21.2048611111111  16.2222222222222 21.0486111111111  16.25 20.9375  C 16.2638888888889 20.8819444444444  16.3020833333333 20.7986111111111  16.3645833333333 20.6875  C 16.4270833333333 20.5763888888889  16.4791666666667 20.4756944444444  16.5208333333333 20.3854166666667  C 16.5625 20.2951388888889  16.5902777777778 20.2083333333333  16.6041666666667 20.125  C 16.6180555555556 20.0416666666667  16.5868055555556 19.9756944444444  16.5104166666667 19.9270833333333  C 16.4340277777778 19.8784722222222  16.3125 19.8611111111111  16.1458333333333 19.875  C 15.8819444444444 19.8888888888889  15.7013888888889 20.0277777777778  15.6041666666667 20.2916666666667  C 15.5902777777778 20.3333333333333  15.5694444444444 20.40625  15.5416666666667 20.5104166666667  C 15.5138888888889 20.6145833333333  15.4791666666667 20.6944444444444  15.4375 20.75  C 15.3958333333333 20.8055555555556  15.3333333333333 20.8541666666667  15.25 20.8958333333333  C 15.1527777777778 20.9375  14.9861111111111 20.9513888888889  14.75 20.9375  C 14.5138888888889 20.9236111111111  14.3472222222222 20.8888888888889  14.25 20.8333333333333  C 14.0694444444444 20.7222222222222  13.9131944444444 20.5208333333333  13.78125 20.2291666666667  C 13.6493055555556 19.9375  13.5833333333333 19.6805555555556  13.5833333333333 19.4583333333333  C 13.5833333333333 19.3194444444444  13.6006944444444 19.1354166666667  13.6354166666667 18.90625  C 13.6701388888889 18.6770833333333  13.6909722222222 18.5034722222222  13.6979166666667 18.3854166666667  C 13.7048611111111 18.2673611111111  13.6666666666667 18.0972222222222  13.5833333333333 17.875  C 13.625 17.8472222222222  13.6875 17.78125  13.7708333333333 17.6770833333333  C 13.8541666666667 17.5729166666667  13.9236111111111 17.5  13.9791666666667 17.4583333333333  C 14.0069444444444 17.4444444444444  14.0381944444444 17.4340277777778  14.0729166666667 17.4270833333333  C 14.1076388888889 17.4201388888889  14.1388888888889 17.4201388888889  14.1666666666667 17.4270833333333  C 14.1944444444444 17.4340277777778  14.2222222222222 17.4236111111111  14.25 17.3958333333333  C 14.2777777777778 17.3680555555556  14.2986111111111 17.3263888888889  14.3125 17.2708333333333  C 14.2986111111111 17.2569444444444  14.2708333333333 17.2361111111111  14.2291666666667 17.2083333333333  C 14.1875 17.1666666666667  14.1597222222222 17.1458333333333  14.1458333333333 17.1458333333333  C 14.2430555555556 17.1875  14.4409722222222 17.1770833333333  14.7395833333333 17.1145833333333  C 15.0381944444444 17.0520833333333  15.2291666666667 17.0625  15.3125 17.1458333333333  C 15.5208333333333 17.2986111111111  15.6736111111111 17.2847222222222  15.7708333333333 17.1041666666667  C 15.7708333333333 17.0902777777778  15.7534722222222 17.0243055555556  15.71875 16.90625  C 15.6840277777778 16.7881944444444  15.6805555555556 16.6944444444444  15.7083333333333 16.625  C 15.7777777777778 17  15.9791666666667 17.0625  16.3125 16.8125  C 16.3541666666667 16.8541666666667  16.4618055555556 16.8888888888889  16.6354166666667 16.9166666666667  C 16.8090277777778 16.9444444444444  16.9305555555556 16.9791666666667  17 17.0208333333333  C 17.0416666666667 17.0486111111111  17.0902777777778 17.0868055555556  17.1458333333333 17.1354166666667  C 17.2013888888889 17.1840277777778  17.2395833333333 17.2152777777778  17.2604166666667 17.2291666666667  C 17.28125 17.2430555555556  17.3159722222222 17.2395833333333  17.3645833333333 17.21875  C 17.4131944444444 17.1979166666667  17.4722222222222 17.1527777777778  17.5416666666667 17.0833333333333  C 17.6805555555556 17.2777777777778  17.7638888888889 17.4444444444444  17.7916666666667 17.5833333333333  C 17.9444444444444 18.1388888888889  18.0763888888889 18.4444444444444  18.1875 18.5  C 18.2847222222222 18.5416666666667  18.3611111111111 18.5555555555556  18.4166666666667 18.5416666666667  C 18.4722222222222 18.5277777777778  18.5034722222222 18.4618055555556  18.5104166666667 18.34375  C 18.5173611111111 18.2256944444444  18.5173611111111 18.1284722222222  18.5104166666667 18.0520833333333  C 18.5034722222222 17.9756944444444  18.4930555555556 17.8888888888889  18.4791666666667 17.7916666666667  L 18.4583333333333 17.625  L 18.4583333333333 17.25  L 18.4375 17.0833333333333  C 18.2291666666667 17.0416666666667  18.1006944444444 16.9583333333333  18.0520833333333 16.8333333333333  C 18.0034722222222 16.7083333333333  18.0138888888889 16.5798611111111  18.0833333333333 16.4479166666667  C 18.1527777777778 16.3159722222222  18.2569444444444 16.1875  18.3958333333333 16.0625  C 18.4097222222222 16.0486111111111  18.4652777777778 16.0243055555556  18.5625 15.9895833333333  C 18.6597222222222 15.9548611111111  18.7673611111111 15.9097222222222  18.8854166666667 15.8541666666667  C 19.0034722222222 15.7986111111111  19.0902777777778 15.7430555555556  19.1458333333333 15.6875  C 19.4375 15.4236111111111  19.5416666666667 15.1805555555556  19.4583333333333 14.9583333333333  C 19.5555555555556 14.9583333333333  19.6319444444444 14.8958333333333  19.6875 14.7708333333333  C 19.6736111111111 14.7708333333333  19.6388888888889 14.75  19.5833333333333 14.7083333333333  C 19.5277777777778 14.6666666666667  19.4756944444444 14.6319444444444  19.4270833333333 14.6041666666667  C 19.3784722222222 14.5763888888889  19.3472222222222 14.5625  19.3333333333333 14.5625  C 19.4583333333333 14.4930555555556  19.4722222222222 14.3819444444444  19.375 14.2291666666667  C 19.4444444444444 14.1875  19.4965277777778 14.1111111111111  19.53125 14  C 19.5659722222222 13.8888888888889  19.6180555555556 13.8194444444444  19.6875 13.7916666666667  C 19.8125 13.9583333333333  19.9583333333333 13.9722222222222  20.125 13.8333333333333  C 20.2361111111111 13.7222222222222  20.2430555555556 13.6111111111111  20.1458333333333 13.5  C 20.2152777777778 13.4027777777778  20.3576388888889 13.3298611111111  20.5729166666667 13.28125  C 20.7881944444444 13.2326388888889  20.9166666666667 13.1666666666667  20.9583333333333 13.0833333333333  C 21.0555555555556 13.1111111111111  21.1111111111111 13.0972222222222  21.125 13.0416666666667  C 21.1388888888889 12.9861111111111  21.1458333333333 12.9027777777778  21.1458333333333 12.7916666666667  C 21.1458333333333 12.6805555555556  21.1666666666667 12.5972222222222  21.2083333333333 12.5416666666667  C 21.2638888888889 12.4722222222222  21.3680555555556 12.4097222222222  21.5208333333333 12.3541666666667  C 21.6736111111111 12.2986111111111  21.7638888888889 12.2638888888889  21.7916666666667 12.25  L 22.1458333333333 12.0208333333333  C 22.1875 11.9652777777778  22.1875 11.9375  22.1458333333333 11.9375  C 22.3958333333333 11.9652777777778  22.6111111111111 11.8888888888889  22.7916666666667 11.7083333333333  C 22.9305555555556 11.5555555555556  22.8888888888889 11.4166666666667  22.6666666666667 11.2916666666667  C 22.7083333333333 11.2083333333333  22.6875 11.1423611111111  22.6041666666667 11.09375  C 22.5208333333333 11.0451388888889  22.4166666666667 11.0069444444444  22.2916666666667 10.9791666666667  C 22.3333333333333 10.9652777777778  22.4131944444444 10.9618055555556  22.53125 10.96875  C 22.6493055555556 10.9756944444444  22.7222222222222 10.9652777777778  22.75 10.9375  C 22.9583333333333 10.7986111111111  22.9097222222222 10.6875  22.6041666666667 10.6041666666667  Z M 18.2708333333333 28.7916666666667  C 18.2708333333333 28.875  18.2847222222222 28.9861111111111  18.3125 29.125  C 21.1736111111111 28.625  23.6111111111111 27.3125  25.625 25.1875  C 25.5833333333333 25.1458333333333  25.4965277777778 25.1145833333333  25.3645833333333 25.09375  C 25.2326388888889 25.0729166666667  25.1458333333333 25.0486111111111  25.1041666666667 25.0208333333333  C 24.8541666666667 24.9236111111111  24.6875 24.8680555555556  24.6041666666667 24.8541666666667  C 24.6180555555556 24.7569444444444  24.6006944444444 24.6666666666667  24.5520833333333 24.5833333333333  C 24.5034722222222 24.5  24.4479166666667 24.4375  24.3854166666667 24.3958333333333  C 24.3229166666667 24.3541666666667  24.2361111111111 24.2986111111111  24.125 24.2291666666667  C 24.0138888888889 24.1597222222222  23.9375 24.1111111111111  23.8958333333333 24.0833333333333  C 23.8680555555556 24.0555555555556  23.8194444444444 24.0138888888889  23.75 23.9583333333333  C 23.6805555555556 23.9027777777778  23.6319444444444 23.8645833333333  23.6041666666667 23.84375  C 23.5763888888889 23.8229166666667  23.5243055555556 23.7916666666667  23.4479166666667 23.75  C 23.3715277777778 23.7083333333333  23.3125 23.6944444444444  23.2708333333333 23.7083333333333  C 23.2291666666667 23.7222222222222  23.1597222222222 23.7291666666667  23.0625 23.7291666666667  L 23 23.75  C 22.9583333333333 23.7638888888889  22.9201388888889 23.78125  22.8854166666667 23.8020833333333  C 22.8506944444444 23.8229166666667  22.8125 23.84375  22.7708333333333 23.8645833333333  C 22.7291666666667 23.8854166666667  22.7013888888889 23.90625  22.6875 23.9270833333333  C 22.6736111111111 23.9479166666667  22.6736111111111 23.9652777777778  22.6875 23.9791666666667  C 22.3958333333333 23.7430555555556  22.1458333333333 23.5902777777778  21.9375 23.5208333333333  C 21.8680555555556 23.5069444444444  21.7916666666667 23.46875  21.7083333333333 23.40625  C 21.625 23.34375  21.5520833333333 23.2951388888889  21.4895833333333 23.2604166666667  C 21.4270833333333 23.2256944444444  21.3576388888889 23.2152777777778  21.28125 23.2291666666667  C 21.2048611111111 23.2430555555556  21.125 23.2916666666667  21.0416666666667 23.375  C 20.9722222222222 23.4444444444444  20.9305555555556 23.5486111111111  20.9166666666667 23.6875  C 20.9027777777778 23.8263888888889  20.8888888888889 23.9166666666667  20.875 23.9583333333333  C 20.7777777777778 23.8888888888889  20.7777777777778 23.7673611111111  20.875 23.59375  C 20.9722222222222 23.4201388888889  20.9861111111111 23.2916666666667  20.9166666666667 23.2083333333333  C 20.875 23.125  20.8020833333333 23.09375  20.6979166666667 23.1145833333333  C 20.59375 23.1354166666667  20.5104166666667 23.1666666666667  20.4479166666667 23.2083333333333  C 20.3854166666667 23.25  20.3055555555556 23.3090277777778  20.2083333333333 23.3854166666667  C 20.1111111111111 23.4618055555556  20.0486111111111 23.5069444444444  20.0208333333333 23.5208333333333  C 19.9930555555556 23.5347222222222  19.9340277777778 23.5729166666667  19.84375 23.6354166666667  C 19.7534722222222 23.6979166666667  19.6944444444444 23.75  19.6666666666667 23.7916666666667  C 19.625 23.8472222222222  19.5833333333333 23.9305555555556  19.5416666666667 24.0416666666667  C 19.5 24.1527777777778  19.4652777777778 24.2291666666667  19.4375 24.2708333333333  C 19.4097222222222 24.2152777777778  19.3298611111111 24.1701388888889  19.1979166666667 24.1354166666667  C 19.0659722222222 24.1006944444444  19 24.0625  19 24.0208333333333  C 19.0277777777778 24.1597222222222  19.0555555555556 24.4027777777778  19.0833333333333 24.75  C 19.1111111111111 25.0972222222222  19.1458333333333 25.3611111111111  19.1875 25.5416666666667  C 19.2847222222222 25.9722222222222  19.2013888888889 26.3055555555556  18.9375 26.5416666666667  C 18.5625 26.8888888888889  18.3611111111111 27.1666666666667  18.3333333333333 27.375  C 18.2777777777778 27.6805555555556  18.3611111111111 27.8611111111111  18.5833333333333 27.9166666666667  C 18.5833333333333 28.0138888888889  18.5277777777778 28.15625  18.4166666666667 28.34375  C 18.3055555555556 28.53125  18.2569444444444 28.6805555555556  18.2708333333333 28.7916666666667  Z " fill-rule="nonzero" fill="#000000" stroke="none" fill-opacity="0.701960784313725" transform="matrix(1 0 0 1 133 518 )" />
  </g>
</svg>